<svg xmlns="http://www.w3.org/2000/svg" viewBox="0 0 512 512" width="512" height="512">
  <defs>
    <linearGradient id="tile" x1="0" y1="0" x2="1" y2="1">
      <stop offset="0" stop-color="#f0506e"/>
      <stop offset="1" stop-color="#b8294b"/>
    </linearGradient>
  </defs>
  <!-- Red rounded-square tile (carries its own background, so one icon works on any backdrop) -->
  <rect x="16" y="16" width="480" height="480" rx="108" fill="url(#tile)"/>
  <!-- White rocket knockout. Scaled + centered so the top (nose) and bottom (flame) gaps are equal (~24px). -->
  <g transform="translate(256,256) scale(1.0485) translate(-256,-266)">
    <path d="M214 394 L256 472 L298 394 Z" fill="#ffd27a"/>
    <path d="M236 394 L256 440 L276 394 Z" fill="#fff6df"/>
    <path d="M256 60 C300 110 326 182 326 262 L326 352 Q326 382 296 394 L216 394 Q186 382 186 352 L186 262 C186 182 212 110 256 60 Z" fill="#fff"/>
    <path d="M186 300 L118 398 L186 374 Z" fill="#fff"/>
    <path d="M326 300 L394 398 L326 374 Z" fill="#fff"/>
    <circle cx="256" cy="212" r="46" fill="#b8294b"/>
  </g>
</svg>
